<svg height="300px" width="300px" fill="#60a5fa" xmlns="http://www.w3.org/2000/svg" xmlns:xlink="http://www.w3.org/1999/xlink" version="1.1" x="0px" y="0px" viewBox="0 0 1000 1000" style="enable-background:new 0 0 1000 1000" xml:space="preserve">
  <g>
    <g>
      <path d="M622.3,1000h-50.5c-11.5,0-20.9-9.3-20.9-20.9c0-11.5-9.4-20.9-20.9-20.9h-62.6c-11.5,0-20.9,9.4-20.9,20.9    s-9.3,20.9-20.9,20.9h-50.5c-14.8,0-28.6-7.9-36.1-20.7c-5.3-9.2-13.2-23.8-23-41.7c-82.8-152.4-135.6-233.2-157.1-240h-18.3l0,0    c-20.3,0-39.4-9.9-51.1-26.4C78.1,655,75,634.4,81.1,615.6l32.1-148.5L113,333.8C113,149.7,262.7,0,446.7,0H551    c184,0,333.7,149.7,333.7,333.7l-0.4,133.4l32.1,148.5c6.1,18.8,3,39.5-8.4,55.6c-11.7,16.5-30.8,26.4-51.1,26.4c0,0,0,0-0.1,0    h-18.2c-21.5,6.8-74.4,87.5-157.1,240c-9.7,17.9-17.7,32.6-23,41.7C650.9,992.1,637.1,1000,622.3,1000z M592.6,979.1L592.6,979.1    L592.6,979.1z M159.9,655.9c38.5,0,85.4,63.6,193,261.8c9.5,17.5,17.2,31.8,22.4,40.7h33.2c8.6-24.3,31.8-41.7,59-41.7h62.6    c27.2,0,50.4,17.4,59,41.7h33.2c5.2-8.9,12.9-23.1,22.4-40.6C752.3,719.6,799.2,656,837.7,656h19.1l0,0c6.8,0,13.1-3.2,17-8.8    c4-5.6,4.9-12.5,2.6-19c-0.3-0.8-0.5-1.7-0.7-2.5l-32.7-152c-0.3-1.5-0.5-3-0.5-4.5l0.4-135.6c0-160.9-131-291.9-292-291.9H446.7    c-161,0-292,131-292,292l0.4,135.5c0,1.5-0.2,3-0.5,4.5l-32.8,151.9c-0.2,0.9-0.4,1.7-0.7,2.5c-2.3,6.5-1.3,13.4,2.6,19    c4,5.6,10.2,8.8,17,8.8l0,0L159.9,655.9z"/>
    </g>
    <g>
      <path d="M781.9,748.7c-0.8,0-1.6-0.1-2.5-0.1c-142.1-16.9-223.6-222.4-227-231.1c-4.2-10.7,1.1-22.8,11.9-27    c10.7-4.2,22.8,1.1,27,11.9c0.7,1.9,75.8,190.9,193.1,204.9c11.4,1.4,19.6,11.7,18.3,23.2C801.3,741,792.3,748.7,781.9,748.7z"/>
    </g>
    <g>
      <path d="M694.3,891.3c-9.1,0-17.5-6-20.1-15.2c-3.1-11.1,3.4-22.6,14.5-25.7l79.9-22.4l-7.6-98.5c-0.9-11.5,7.7-21.5,19.2-22.4    s21.5,7.7,22.4,19.2l9,115.7c0.4,5.8-1.5,11.5-5.5,15.8c-3.2,3.4-7.4,5.7-11.9,6.4L700,890.6C698.1,891.1,696.2,891.3,694.3,891.3    z"/>
    </g>
    <g>
      <path d="M304.3,893.2c-2,0-4-0.3-5.9-0.9l-97.1-28.7c-3.7-1-7.1-3.1-9.8-5.9c-4-4.3-6-10-5.5-15.8l9-115.7    c0.9-11.5,10.8-20.1,22.4-19.2c11.5,0.9,20.1,10.9,19.2,22.4l-7.6,98.8l81.3,24c11,3.3,17.4,14.9,14.1,25.9    C321.7,887.4,313.3,893.2,304.3,893.2z"/>
    </g>
    <g>
      <path d="M665.6,551.6h-2.8l-2.7-0.7c-1.1-0.3-112.6-30.6-161.4-30.6s-160.2,30.2-161.4,30.6l-2.7,0.7h-2.8c-40.2,0-73-32.7-73-73    c0-40.2,32.7-73,73-73l3.7,0.3c1.1,0.2,113.5,20.5,163.1,20.5c49.7,0,162-20.3,163.1-20.5l3.7-0.3c40.2,0,73,32.7,73,73    C738.6,518.9,705.9,551.6,665.6,551.6z M498.8,478.6c50,0,150.1,26.1,169.3,31.2c16.1-1.2,28.9-14.8,28.9-31.2    c0-16.7-13.2-30.4-29.7-31.2c-16.4,2.9-118.4,20.8-168.5,20.8s-152-17.9-168.5-20.8c-16.5,0.9-29.7,14.5-29.7,31.2    c0,16.4,12.7,30,28.9,31.2C348.7,504.7,448.8,478.6,498.8,478.6z"/>
    </g>
    <g>
      <path d="M215.8,748.7c-4.9,0-9.9-1.7-13.9-5.3c-8.6-7.7-9.3-20.9-1.7-29.5c19.8-22.2,30.8-43.6,29.4-57.2c-0.4-3.8-1.8-9-9.2-14.5    c-53.9-36.4-86.6-97.8-86.6-163.7c0-109.2,88.9-198.1,198.1-198.1l1.9,0.1l24.2,2.3c49,8.9,116.8,18.5,140.8,18.5    s91.7-9.6,140.8-18.5l1.9-0.2l24.2-2.1c109.2,0,198.1,88.9,198.1,198.1c0,65.8-32.7,127.2-87.4,164.2c-6.6,4.9-8,10-8.4,13.9    c-1.4,13.4,9.3,34.5,28.5,56.3c7.6,8.6,6.8,21.8-1.9,29.4c-8.6,7.6-21.8,6.8-29.4-1.9c-19.5-22.2-42.1-55.5-38.7-88.2    c1.8-17.3,10.7-32.3,25.7-43.6c44-29.8,69.8-78.3,69.8-130.2c0-85.9-69.7-155.9-155.5-156.4l-20.5,1.8c-41,7.4-116.5,19-147.3,19    s-106.2-11.6-147.3-19l-20.5-1.8c-85.8,0.5-155.5,70.5-155.5,156.4c0,52,25.8,100.4,69.1,129.7c15.9,11.8,24.7,26.9,26.5,44.3    c3.3,33.1-19.8,66.8-39.8,89.2C227.2,746.4,221.5,748.7,215.8,748.7z"/>
    </g>
    <g>
      <path d="M720.3,600.3c-7.4,0-14.6-3.9-18.3-10.9c-5.5-10.1-1.8-22.8,8.3-28.3c30.3-16.5,49.1-48.1,49.1-82.5    c0-51.5-41.6-93.4-93-93.8l-9.3,0.8c-10.9,2-113.1,20-158.4,20s-147.5-18.1-158.4-20l-9.3-0.8c-51.3,0.5-93,42.4-93,93.8    c0,34.4,18.8,66,49.1,82.5c10.1,5.5,13.8,18.2,8.3,28.3s-18.2,13.8-28.3,8.3c-43.7-23.8-70.9-69.5-70.9-119.1    c0-74.8,60.8-135.6,135.6-135.6l1.9,0.1l13,1.3c41.5,7.5,119.5,19.5,151.9,19.5s110.4-12,151.9-19.5l1.9-0.2l13.1-1.1    c74.7,0,135.6,60.8,135.6,135.6c0,49.7-27.2,95.3-70.9,119.1C727.1,599.5,723.7,600.3,720.3,600.3z"/>
    </g>
    <g>
      <path d="M215.7,748.7c-10.3,0-19.2-7.6-20.6-18c-1.6-11.4,6.4-21.9,17.8-23.5C328.6,691.3,400.3,504.4,401,502.5    c4.1-10.8,16.1-16.2,26.9-12.2c10.8,4.1,16.2,16.1,12.2,26.9c-3.2,8.6-81.2,212-221.5,231.3C217.6,748.7,216.7,748.7,215.7,748.7z    "/>
    </g>
  </g>
</svg>
