<svg height="300px" width="300px" fill="#FF0000" xmlns="http://www.w3.org/2000/svg" xmlns:xlink="http://www.w3.org/1999/xlink" version="1.1" x="0px" y="0px" viewBox="0 0 100 100" enable-background="new 0 0 100 100" xml:space="preserve">
  <path d="M78.7,39l-0.3-0.8c-2.8-7.2-9.5-9.1-13-9.1c-1.4,0-6.7,0.6-10.9,1.1h-8.5c-4.2-0.5-9.5-1.1-10.9-1.1c-3.5,0-10.2,1.9-13,9.1  L21.7,39l-0.8,7.6l5.6,5.9h9.4c0.8-1.2,1.6-2.4,2.4-3.4H27.9l-3.5-3.7l0.6-5.6l0.2-0.4c2.1-5.5,7.2-6.9,9.8-6.9  c1.4,0,8.3,0.8,10.7,1.1h8.9c2.4-0.3,9.3-1.1,10.7-1.1c2.7,0,7.7,1.4,9.8,6.9l0.2,0.4l0.6,5.6l-3.5,3.7H62.1  c0.7,1.1,1.5,2.2,2.4,3.4h9.4l5.6-5.9L78.7,39z"/>
  <path d="M64.5,45.6h0.5h6l1.4-1.4c0,0,0,0-0.4-3.6c-1.6-4.1-5.3-4.8-6.6-4.8S54.9,37,54.9,37h-9.4c0,0-9.1-1.1-10.5-1.1  c-1.4,0-5.1,0.7-6.6,4.8C28,44.2,28,44.2,28,44.2l1.4,1.4h6.5h1.6h1.5h1.6c1.4-2.2,2.3-3.5,2.3-3.6l0.5-0.7h13.9l0.5,0.7  c0,0,0.8,1.4,2.3,3.6h1.5H64.5z"/>
  <path d="M35,18.8c0.8,0,2.3,0,11.5,1.1h7.2c9.2-1.1,10.7-1.1,11.5-1.1c3.6,0,9.2,1.1,14.1,4.7c0,0,0.1,0.1,0.1,0.1s-0.3-0.9,0-0.2  c-2.2-6.6-4.6-10-5.6-11.1l-2.4,0.2L71,11.7C67.5,5.9,58.6,5,53.6,5c-2,0-4.9,0-6.9,0c-5,0-14,0.9-17.4,6.7l-0.5,0.8l-2.4-0.2  c-1,1.2-3.4,4.6-5.6,11.2C25.8,20,31.3,18.8,35,18.8z"/>
  <g>
    <path d="M17,47.7v4.8l6.5,6.9H31c0.9-1.2,1.7-2.3,2.5-3.4h-8.5L17,47.7z"/>
    <path d="M18.3,38.4l0-0.2l0.5-1.3C22.2,28,30.6,25.6,35,25.6c0.5,0,1.9,0,11.1,1.1h8.1c9.2-1.1,10.7-1.1,11.1-1.1   c4.4,0,12.7,2.4,16.2,11.3l0.5,1.3l0,0.2h0.7c-0.4-3.2-0.9-6.1-1.4-8.7c-4.8-5.8-11.8-7.5-15.9-7.5c-0.6,0-2.1,0-11.3,1.1h-7.7   c-9.2-1.1-10.7-1.1-11.3-1.1c-4.1,0-11,1.7-15.9,7.5c-0.6,2.6-1.1,5.5-1.5,8.7H18.3z"/>
    <path d="M75.3,55.9h-8.5c0.8,1.1,1.6,2.3,2.5,3.4h7.5l6.5-6.9v-4.8L75.3,55.9z"/>
  </g>
  <path d="M55.4,44.3H44.9c-2,3.1-10.4,16.1-20.6,28.3c1.3,2.2,11.9,20.2,13.2,22.3c2-0.5,4-1.1,4.5-1.3c0.4-0.4,1.2-1.7,1.4-2.7  l0-0.2c0.3-0.9,1.4-2.1,5.3-2.1h2.8c3.9,0,5,1.1,5.3,2.1l0,0.2c0.2,1,1.1,2.3,1.4,2.7c0.5,0.2,2.5,0.7,4.5,1.3  c1.3-2.1,11.9-20.1,13.2-22.3C65.8,60.5,57.4,47.5,55.4,44.3z"/>
  <path d="M28.3,62.9l0-0.1H22l-5-5.3l0.3,3.4l5.4,9.1C24.7,67.6,26.6,65.2,28.3,62.9z"/>
  <path d="M25.5,80.5c-1.4-2.3-2.5-4.3-3.2-5.4L16.2,65c0,0-3.5,6-3.8,8.2C12,76.9,13.2,81,13.2,81h12.6  C25.7,80.9,25.6,80.7,25.5,80.5z"/>
  <path d="M71.8,62.9l0-0.1h6.4l5-5.3l-0.3,3.4l-5.4,9.1C75.4,67.6,73.5,65.2,71.8,62.9z"/>
  <path d="M74.6,80.5c1.4-2.3,2.5-4.3,3.2-5.4L83.9,65c0,0,3.5,6,3.8,8.2c0.5,3.8-0.8,7.8-0.8,7.8H74.3C74.4,80.9,74.5,80.7,74.6,80.5  z"/>
</svg>
