<svg height="300px" width="300px" fill="#E11D48" xmlns="http://www.w3.org/2000/svg" xmlns:xlink="http://www.w3.org/1999/xlink" version="1.1" x="0px" y="0px" viewBox="0 0 651.97 651.97" enable-background="new 0 0 651.97 651.97" xml:space="preserve">
  <g>
    <path d="M348.775,332.018c-0.57-0.698-1.017-1.215-1.367-1.596h-42.846c-0.35,0.381-0.797,0.897-1.367,1.596   c7.195,0.946,15.761,1.822,22.79,1.822S341.58,332.964,348.775,332.018z"/>
    <path d="M157.119,334.627c-0.167-2.122-0.231-4.259-0.19-6.351v-13.665c-1.648,6.682-3.385,13.252-5.034,19.495   c-4.817,18.226-9.367,35.44-9.367,45.832c0,9.23,10.954,23.021,29.583,37.462c0.004-0.891,0.021-3.934,0.021-3.934l0.001-16.415   c-0.381-12.977-3.578-21.13-6.963-29.764C161.631,358.258,157.972,348.92,157.119,334.627z"/>
    <path d="M279.335,374.602c-2.441-0.521-4.54-1.007-6.238-1.418c-15.738,20.343-30.757,36.093-45.807,48.032l0.272,0.591   l-2.611,1.232c-10.705,8.209-21.5,14.504-32.144,18.751c3.829,6.617,8.359,13.016,13.914,19.645   c1.433-8.152,5.539-13.932,12.263-17.23C228.333,439.616,251.875,417.354,279.335,374.602z"/>
    <path d="M222.216,196.625c11.953,0,24.754,2.022,39.589,4.366c2.227,0.352,4.491,0.709,6.792,1.066v-23.39   c-8.653-2.781-21.861-9.729-28.213-26.833c-1.655-4.454,0.624-9.425,5.082-11.081c0.965-0.357,1.974-0.539,2.997-0.539   c3.585,0,6.832,2.258,8.081,5.62c5.779,15.562,20.915,17.359,21.552,17.427c4.412,0.468,7.738,4.153,7.738,8.572v32.688   c14.658,1.858,27.482,2.728,40.151,2.728c24.571,0,45.609-3.324,64.186-6.259c14.825-2.343,27.629-4.366,39.582-4.366   c12.023,0,21.685,2.084,30.405,6.558c11.571,5.937,20.134,15.126,25.836,27.814c-3.297-49.562-14.731-84.416-35.356-108.496   c-25.249-29.478-64.858-43.207-124.653-43.207s-99.404,13.729-124.653,43.207c-20.625,24.079-32.059,58.932-35.356,108.495   c5.703-12.688,14.264-21.876,25.836-27.813C200.531,198.709,210.193,196.625,222.216,196.625z"/>
    <path d="M189.397,406.861c-0.008,2.632-0.02,4.808-0.03,6.665l0,9.962c0.006,0.345,0.013,0.693,0.021,1.049   c3.478-1.524,6.984-3.307,10.488-5.331C195.958,416.191,192.45,412.062,189.397,406.861z"/>
    <path d="M495.042,314.615l-0.001,13.681c0.04,2.096-0.024,4.225-0.187,6.272c-0.857,14.352-4.517,23.689-8.055,32.72   c-3.385,8.635-6.582,16.79-6.961,29.672v16.489c0,0,0.017,3.067,0.021,3.952c18.629-14.442,29.583-28.232,29.583-37.463   c0-10.392-4.55-27.606-9.367-45.832C498.426,327.866,496.69,321.296,495.042,314.615z"/>
    <path d="M452.104,419.212c3.503,2.023,7.007,3.804,10.479,5.325c0.008-0.339,0.014-0.671,0.02-0.998v-9.994   c-0.011-1.868-0.022-4.048-0.03-6.683C459.516,412.072,456.012,416.204,452.104,419.212z"/>
    <path d="M425.393,459.677c-6.717-3.295-14.858-9.929-24.209-19.725h-12.605c-4.049,7.092-11.28,18.289-19.527,24.334   c-1.488,1.09-3.248,1.666-5.091,1.666c-2.736,0-5.336-1.317-6.954-3.524c-2.809-3.834-1.975-9.237,1.858-12.045   c6.952-5.096,14.712-18.587,16.881-22.909c1.471-2.935,4.423-4.758,7.704-4.758h2.695c-10.741-13.285-22.078-29.245-31.84-44.859   c-10.062,1.419-19.58,2.138-28.32,2.138c-8.738,0-18.256-0.719-28.319-2.138c-29.146,46.712-56.635,74.729-71.089,81.82   c-4.394,2.156-3.395,11.173-2.113,19.455c0.071,0.463,0.139,0.903,0.203,1.329c2.965,2.886,5.951,5.727,8.998,8.618   c19.784,18.779,41.432,52.557,43.577,83.564c1.514-0.03,3.299-0.172,5.115-0.405c8.955-15.803,33.33-17.55,43.629-17.55   c10.298,0,34.672,1.747,43.629,17.55c1.815,0.233,3.6,0.375,5.113,0.405c2.146-31.007,23.793-64.784,43.577-83.564   c2.898-2.75,5.967-5.668,8.999-8.617c0.063-0.427,0.131-0.868,0.203-1.331C428.788,470.85,429.787,461.834,425.393,459.677z    M301.843,508.641c-1.18,1.973-4.314,7.214-4.314,10.193c0,4.752-3.866,8.618-8.618,8.618s-8.618-3.866-8.618-8.618   c0-1.378,0.143-2.814,0.425-4.299c-1.153,0.046-2.342,0.068-3.561,0.068c-1.916,0-3.865-0.056-5.793-0.165   c-4.744-0.271-8.384-4.351-8.114-9.096c0.26-4.557,4.045-8.126,8.617-8.126c0.154,0,0.309,0.004,0.477,0.013   c1.361,0.077,2.785,0.116,4.232,0.116c6.921,0,11.405-0.831,12.383-1.3c2.229-1.79,4.49-2.697,6.721-2.697   c1.99,0,3.895,0.735,5.508,2.126C306.819,500.326,303.074,506.583,301.843,508.641z"/>
    <path d="M424.41,421.799l0.27-0.583c-15.051-11.94-30.07-27.69-45.807-48.032c-1.699,0.411-3.798,0.896-6.238,1.418   c27.46,42.753,51.001,65.015,60.35,69.602c6.725,3.3,10.831,9.079,12.264,17.231c5.555-6.629,10.085-13.027,13.914-19.645   c-10.646-4.248-21.441-10.543-32.146-18.752L424.41,421.799z"/>
    <path d="M513.727,330.499c-5.906-22.347-12.6-47.675-12.6-67.124c0-70.702-12.635-118.384-39.766-150.058   c-14.221-16.601-32.168-28.547-54.873-36.521c-22.266-7.82-48.598-11.621-80.503-11.621c-31.905,0-58.238,3.801-80.504,11.621   c-22.704,7.974-40.652,19.92-54.872,36.521c-27.131,31.674-39.767,79.355-39.767,150.058c0,19.449-6.693,44.777-12.599,67.124   c-5.277,19.972-9.835,37.219-9.835,49.439c0,22.982,31.936,47.074,45.751,56.42l1.372,2.892   c12.189,25.687,31.434,43.953,48.413,60.069c21.116,20.043,39.353,52.354,39.353,78.284c0,2.526,1.092,4.804,3.074,6.411   c2.579,2.091,6.627,2.779,10.836,2.779c4.423,0,9.023-0.76,12.284-1.449l3.305-0.636l0.861-3.284   c0.196-0.679,5.127-12.618,32.327-12.618c27.201,0,32.13,11.939,32.31,12.553l0.861,3.284l3.322,0.701   c3.262,0.689,7.861,1.449,12.283,1.449c4.209,0,8.258-0.688,10.836-2.779c1.982-1.607,3.074-3.885,3.074-6.411   c0-25.931,18.236-58.241,39.354-78.284c16.979-16.116,36.223-34.383,48.412-60.069l1.373-2.892   c13.814-9.346,45.75-33.438,45.75-56.42C523.561,367.718,519.004,350.471,513.727,330.499z M198.963,120.473   c25.887-30.222,66.249-44.297,127.021-44.297c60.773,0,101.134,14.075,127.021,44.297c24.646,28.774,36.477,72.562,37.092,137.501   c-2.971-21.538-10.785-41.459-31.363-52.017c-18.842-9.667-40.572-6.232-68.082-1.886c-18.678,2.951-39.848,6.297-64.667,6.297   c-15.805,0-30.125-1.358-43.27-3.106v-35.428c0-2.812-2.152-5.175-4.949-5.472c-0.719-0.077-17.696-2.072-24.146-19.442   c-1.058-2.848-4.22-4.298-7.071-3.242c-2.847,1.058-4.299,4.224-3.241,7.071c6.5,17.503,20.791,23.558,28.408,25.586v29.355   c-3.551-0.538-7.017-1.085-10.397-1.619c-27.512-4.347-49.241-7.781-68.083,1.886c-20.578,10.558-28.393,30.479-31.363,52.017   C162.488,193.034,174.317,149.247,198.963,120.473z M473.164,236.679c-3.932-4.118-8.672-7.768-14.43-10.722   c-18.842-9.667-40.572-6.232-68.082-1.886c-18.678,2.951-39.848,6.297-64.667,6.297c-24.819,0-45.989-3.346-64.667-6.297   c-27.512-4.347-49.241-7.781-68.083,1.886c-5.758,2.954-10.497,6.604-14.43,10.722c4.048-9.033,10.174-16.175,19.451-20.935   c15.647-8.028,35.813-4.842,61.345-0.808c19.078,3.015,40.701,6.432,66.384,6.432c25.683,0,47.306-3.417,66.384-6.432   c25.531-4.033,45.699-7.221,61.344,0.808C462.99,220.504,469.117,227.646,473.164,236.679z M175.25,413.467   c-0.002,0.355-0.004,0.71-0.006,1.044c-0.022,3.954-0.036,6.457,0.006,9.086v0.062c-15.095-11.003-35.841-29.323-35.841-43.721   c0-10.792,4.6-28.199,9.471-46.629c4.223-15.979,8.831-33.438,11.253-49.611c-0.083,4.732-0.086,9.398-0.086,13.912v30.608   c0,0.014,0.001,0.026,0.001,0.039c-0.043,2.084,0.022,4.122,0.18,6.125c0.828,13.858,4.389,22.945,7.846,31.768   c3.481,8.879,6.78,17.297,7.177,30.81V413.467z M186.25,423.539v-10.013c0.019-3.336,0.04-7.669,0.04-13.812   c0-0.927-0.018-1.825-0.04-2.714v-2.518c1.439,2.599,2.884,5.272,4.323,8.055c4.626,8.936,10.011,14.053,15.187,16.751   c-6.222,3.942-12.679,7.29-19.342,9.837C186.329,426.921,186.277,425.203,186.25,423.539z M209.268,469.098   c-7.805-8.621-15.047-18.023-20.947-28.942c12.468-4.47,24.17-11.456,35.006-19.8c0.035-0.017,0.074-0.032,0.109-0.049   l-0.012-0.025c19.064-14.703,35.428-33.629,48.444-50.613c2.569,0.65,6.944,1.692,12.526,2.787   c-28.762,45.672-53.881,69.564-64.037,74.548C211.181,451.506,209.157,460.636,209.268,469.098z M325.985,310.888   c69.027,0,101.191,27.738,101.191-7.083c0-9.077-2.297-14.721-6.582-18.043c2.369,0.407,4.621,1.163,6.842,2.359   c6.586,3.548,6.141,21.861,5.873,32.804c-0.055,2.317-0.109,4.508-0.109,6.475c0,7.389-1.613,8.696-1.797,8.821   c-2.408,1.627-12.553-2.413-20.705-5.659c-15.115-6.021-35.795-14.258-60.625-14.258c-0.092,0-0.186,0-0.277,0h-23.81h-23.811   c-0.093,0-0.185,0-0.277,0c-24.827,0-45.51,8.237-60.625,14.258c-8.153,3.246-18.296,7.286-20.704,5.659   c-0.184-0.125-1.798-1.433-1.798-8.821c0-1.967-0.054-4.157-0.109-6.475c-0.268-10.942-0.713-29.256,5.873-32.804   c2.221-1.196,4.474-1.952,6.842-2.359c-4.285,3.323-6.582,8.966-6.582,18.043C224.793,338.626,256.958,310.888,325.985,310.888z    M325.985,347.958c12.984,0,29.951-2.62,35.726-3.579c0.25,0.353,0.498,0.705,0.744,1.055c0.42,0.594,0.855,1.212,1.289,1.826   c-11.92,2.393-24.615,4.171-36.016,4.171c-0.555,0-1.11-0.005-1.658-0.013l-0.086,5.499l-0.086-5.499   c-11.817,0.171-25.165-1.667-37.663-4.174c0.43-0.609,0.862-1.222,1.278-1.811c0.246-0.35,0.495-0.702,0.744-1.055   C296.035,345.338,313.001,347.958,325.985,347.958z M297.449,334.364c2.467-3.322,4.583-5.977,5.834-7.061h22.702h22.703   c1.25,1.084,3.367,3.738,5.834,7.061c-7.477,1.103-19.301,2.594-28.537,2.594C316.749,336.958,304.925,335.467,297.449,334.364z    M252.336,338.032c10.154-3.906,22.325-8.031,35.979-9.813c-2.175,2.938-4.72,6.522-7.789,10.872   c-1.249,1.77-2.566,3.637-3.95,5.584C266.973,342.378,258.458,339.919,252.336,338.032z M269.604,354.344   c-4.455,6.068-9.404,12.571-14.806,19.155c-7.007-8.735-8.693-16.72-9.095-25.996C251.243,349.283,259.687,351.843,269.604,354.344   z M281.228,357.07c13.812,2.986,29.146,5.36,43.004,5.36c0.587,0,1.172-0.005,1.753-0.014c0.583,0.009,1.164,0.014,1.753,0.014   c13.857,0,29.191-2.374,43.004-5.36c0.711,0.984,1.436,1.982,2.176,2.994c-9.691,2.2-28.414,5.812-46.933,5.812   c-18.52,0-37.241-3.611-46.934-5.812C279.792,359.053,280.516,358.055,281.228,357.07z M371.443,339.091   c-3.07-4.349-5.615-7.934-7.789-10.872c13.656,1.783,25.832,5.91,35.988,9.816c-6.121,1.891-14.637,4.354-24.24,6.653   C374.016,342.736,372.695,340.864,371.443,339.091z M406.266,347.503c-0.4,9.276-2.088,17.261-9.094,25.996   c-5.402-6.584-10.352-13.087-14.807-19.155C392.281,351.843,400.727,349.282,406.266,347.503z M417.348,344.875   c4.691,1.622,8.822,2.674,12.457,2.674c2.889-0.001,5.469-0.663,7.771-2.224c5.938-4.026,6.623-12.159,6.623-17.926   c0-1.833,0.053-3.958,0.107-6.207c0.369-15.195,0.877-36.006-11.654-42.756c-12.73-6.858-25.061-3.834-42.123,0.352   c-15.75,3.863-35.352,8.672-64.544,8.672c-29.193,0-48.795-4.809-64.544-8.672c-17.062-4.185-29.391-7.211-42.124-0.352   c-12.531,6.75-12.023,27.561-11.653,42.756c0.055,2.249,0.106,4.374,0.106,6.207c0,5.767,0.687,13.899,6.624,17.926   c2.304,1.562,4.882,2.224,7.771,2.224c3.635-0.001,7.767-1.053,12.456-2.674c0.251,12.291,1.92,24.259,12.955,37.142   c-3.784,4.313-7.754,8.593-11.895,12.74c-2.744-21.179-13.697-25.59-21.993-28.922c-7.467-2.999-11.58-4.651-11.58-17.471   c0-5.607-0.111-11.289-0.219-16.784c-0.553-28.243-1.075-54.921,13.368-61.417c9.52-4.28,22.038-1.498,39.361,2.352   c18.15,4.033,40.738,9.053,71.365,9.053c30.626,0,53.214-5.02,71.365-9.053c17.324-3.85,29.844-6.632,39.361-2.352   c14.443,6.496,13.922,33.174,13.369,61.417c-0.107,5.495-0.219,11.177-0.219,16.784c0,12.819-4.113,14.472-11.58,17.471   c-8.297,3.332-19.25,7.743-21.994,28.922c-4.141-4.147-8.109-8.427-11.895-12.74C415.428,369.135,417.098,357.167,417.348,344.875z    M430.588,479.607c-0.131,0.842-0.246,1.611-0.352,2.351c-3.252,3.176-6.527,6.292-9.785,9.383   c-21.523,20.432-41.881,54.755-42.75,84.292c-2.125,0.299-6.119,0.09-10.109-0.533c-3.264-6.836-13.486-17.293-41.607-17.293   c-28.12,0-38.344,10.457-41.606,17.293c-3.991,0.623-7.987,0.832-10.11,0.533c-0.869-29.537-21.226-63.86-42.75-84.292   c-3.257-3.091-6.533-6.207-9.784-9.384c-0.105-0.738-0.222-1.508-0.352-2.35c-1.518-9.807-2.474-19.641,3.821-22.729   c19.71-9.672,50.385-49.256,70.891-82.4c8.983,1.341,19.396,2.398,29.891,2.398c10.496,0,20.908-1.058,29.89-2.398   c10.561,17.069,23.812,35.835,36.883,51.356h-9.309c-2.08,0-3.984,1.177-4.916,3.036c-2.42,4.822-10.336,18.538-17.826,24.027   c-2.451,1.796-2.98,5.237-1.186,7.688c1.078,1.471,2.748,2.25,4.441,2.249c1.127,0,2.266-0.346,3.246-1.063   c8.629-6.325,16.307-19.081,19.545-24.937h15.77c8.834,9.371,17.232,16.604,24.242,20.044   C433.061,459.967,432.105,469.801,430.588,479.607z M442.701,469.098c0.111-8.462-1.912-17.592-11.09-22.095   c-10.156-4.983-35.275-28.876-64.037-74.548c5.582-1.095,9.957-2.137,12.527-2.787c13.016,16.984,29.379,35.91,48.443,50.613   l-0.012,0.025c0.027,0.013,0.068,0.032,0.117,0.055c10.834,8.342,22.533,15.325,34.998,19.794   C457.748,451.074,450.506,460.477,442.701,469.098z M465.721,397c-0.023,0.889-0.041,1.787-0.041,2.714   c0,6.144,0.021,10.477,0.041,13.812v10.013c-0.027,1.664-0.08,3.382-0.168,5.586c-6.662-2.546-13.115-5.893-19.336-9.832   c4.82-2.502,10.326-7.381,15.18-16.756c1.439-2.782,2.885-5.456,4.324-8.055V397z M465.748,329.259   c-0.014,2.84-0.027,5.673-0.027,8.483v34.568c-0.908,1.584-1.83,3.185-2.779,4.826c-3.68,6.364-7.484,12.944-11.314,20.344   c-7.398,14.294-15.074,13.789-17.633,13.125c-2.494-1.963-4.943-4.005-7.346-6.112c0.234-22.21,7.424-25.114,15.732-28.451   c8.232-3.307,18.48-7.422,18.48-27.678c0-5.5,0.109-11.127,0.217-16.568c0.625-31.98,1.217-62.188-19.855-71.665   c-12.85-5.779-26.863-2.665-46.26,1.646c-17.625,3.917-39.559,8.791-68.978,8.791c-29.419,0-51.354-4.874-68.979-8.791   c-19.396-4.311-33.41-7.424-46.26-1.646c-21.071,9.477-20.48,39.685-19.854,71.665c0.106,5.441,0.217,11.068,0.217,16.568   c0,20.256,10.247,24.371,18.48,27.678c8.309,3.337,15.497,6.241,15.731,28.451c-2.412,2.117-4.873,4.169-7.381,6.141   c-2.371,0.614-10.136,1.264-17.598-13.153c-3.83-7.399-7.635-13.979-11.313-20.344c-0.949-1.642-1.872-3.242-2.779-4.826v-34.568   c0-2.811-0.014-5.644-0.027-8.483c-0.155-31.913-0.315-64.912,19.4-75.951c14.58-8.161,31.036-4.746,53.813-0.018   c17.624,3.658,39.558,8.211,66.549,8.211c26.992,0,48.925-4.553,66.548-8.211c22.777-4.729,39.234-8.145,53.814,0.018   C466.062,264.347,465.902,297.346,465.748,329.259z M451.721,243.71c-18.164-10.17-37.254-6.208-61.422-1.19   c-18.023,3.741-38.453,7.981-64.314,7.981c-25.861,0-46.29-4.24-64.313-7.981c-24.167-5.017-43.258-8.98-61.422,1.19   c-25.374,14.206-25.197,50.502-25.027,85.603c0.014,2.822,0.027,5.637,0.027,8.43v12.713c-2.201-5.699-3.654-11.394-4.072-17.392   c-0.081-1.539-0.13-3.136-0.131-4.819c0.194-8.355,0.301-14.068,0.329-17.459c0.014-1.616,0.007-2.626-0.01-3.232   c-0.022-0.816-0.137-1.524-0.318-2.137c0.054-28.377,2.405-56.946,27.209-69.672c15.647-8.028,35.813-4.842,61.345-0.808   c19.078,3.015,40.701,6.432,66.384,6.432c25.683,0,47.306-3.417,66.384-6.432c25.531-4.033,45.695-7.221,61.344,0.808   c24.805,12.726,27.156,41.295,27.209,69.672c-0.182,0.612-0.295,1.32-0.318,2.137c-0.016,0.606-0.023,1.616-0.01,3.232   c0.029,3.391,0.135,9.104,0.33,17.459c-0.002,1.685-0.051,3.28-0.131,4.821c-0.418,5.997-1.871,11.69-4.072,17.39v-12.713   c0-2.793,0.014-5.607,0.027-8.43C476.918,294.212,477.094,257.916,451.721,243.71z M476.721,423.659v-0.062   c0.041-2.629,0.027-5.132,0.006-9.086c-0.002-0.334-0.004-0.688-0.006-1.044V396.96c0.396-13.513,3.695-21.931,7.176-30.81   c3.457-8.822,7.018-17.909,7.846-31.768c0.158-2.003,0.223-4.041,0.18-6.125c0-0.013,0.002-0.025,0.002-0.039V297.61   c0-4.514-0.004-9.18-0.086-13.912c2.422,16.174,7.029,33.632,11.252,49.611c4.871,18.43,9.471,35.837,9.471,46.629   C512.561,394.336,491.814,412.656,476.721,423.659z"/>
    <path d="M299.154,497.837c-1.661-1.432-4.462-2.464-8.364,0.739c-1.815,1.37-10.688,2.215-18.621,1.767   c-3.056-0.161-5.632,2.146-5.805,5.178c-0.173,3.033,2.146,5.632,5.178,5.805c3.004,0.171,8.187,0.322,13.335-0.2   c-0.865,2.45-1.466,5.079-1.466,7.709c0,3.037,2.463,5.5,5.5,5.5s5.5-2.463,5.5-5.5c0-3.842,3.213-9.214,4.757-11.796   C300.436,504.919,302.795,500.975,299.154,497.837z"/>
  </g>
</svg>
