<svg height="300px" width="300px" fill="#1f2937" xmlns="http://www.w3.org/2000/svg" xmlns:xlink="http://www.w3.org/1999/xlink" version="1.1" x="0px" y="0px" viewBox="0 0 100 100" enable-background="new 0 0 100 100" xml:space="preserve">
  <g>
    <g>
      <path fill="#1f2937" d="M79.45,58.335l-1.89-8.1c-0.01-0.06-0.01-0.12-0.02-0.19v-11.07c0-13.46-10.95-24.4-24.4-24.4h-0.02h-6.24    h-0.02c-13.45,0-24.4,10.94-24.4,24.4v11.07c-0.01,0.07-0.01,0.13-0.02,0.19l-1.89,8.1c-0.33,1.43,0.23,2.89,1.44,3.72l4.54,3.14    c0.52,0.36,0.82,0.94,0.82,1.57v6.84c0,1.51,1.02,2.84,2.53,3.24l6.35,1.38l2.47,5.09c0.62,1.28,1.94,2.11,3.36,2.11h1.12    c1.04,0,2.04-0.44,2.75-1.21l0.95-1.04c0.45-0.49,1.1-0.78,1.77-0.78h1.24h0.4h1.23c0.68,0,1.33,0.29,1.78,0.78l0.95,1.04    c0.71,0.77,1.71,1.21,2.75,1.21h1.12c1.42,0,2.74-0.83,3.36-2.11l2.45-5.06l6.24-1.42c1.46-0.39,2.48-1.72,2.48-3.23v-6.84    c0-0.63,0.3-1.21,0.82-1.57l4.54-3.14C79.22,61.225,79.78,59.765,79.45,58.335z M56.79,51.935c1.05,0.31,2.03,0.71,2.93,1.22    c1,0.58,2.06,0.64,2.42,0.64c0.07,0,0.11-0.01,0.13-0.01c1.42,0,2.77-0.61,3.71-1.67c0.95-1.06,1.39-2.48,1.22-3.9    c-0.25-2.17-2-3.98-4.15-4.31c-0.79-0.12-1.56-0.06-2.3,0.17c-1.44,0.46-3.15,0.93-4.92,0.93H50.7h-0.1H50h-5.23    c-1.77,0-3.48-0.47-4.92-0.93c-0.74-0.23-1.51-0.29-2.3-0.17c-2.15,0.33-3.9,2.14-4.15,4.31c-0.17,1.42,0.27,2.84,1.22,3.9    c0.94,1.06,2.29,1.67,3.65,1.67c0.01,0,0.01,0,0.01,0c0.02,0,0.08,0.01,0.16,0.01c0.4,0,1.45-0.07,2.44-0.64    c0.53-0.3,1.09-0.57,1.68-0.8c-0.9,2.51-3.61,8.67-9.65,12.77v-4.63c0-1.31-0.68-2.53-1.83-3.26c-3.54-2.23-5.41-6.38-4.77-10.55    c0.7-4.6,4.42-8.2,9.06-8.77c1.54-0.18,3.07-0.05,4.52,0.42l3.03,0.58c4.7,0.89,9.46,0.9,14.16,0.02l3.07-0.57l0.12-0.03    c1.45-0.47,2.97-0.61,4.52-0.42c4.63,0.57,8.36,4.17,9.06,8.77c0.64,4.17-1.23,8.32-4.77,10.55c-1.15,0.73-1.83,1.95-1.83,3.26    v5.07C60.38,61.245,57.54,54.175,56.79,51.935z M30.35,74.905c-0.59-0.16-1-0.69-1-1.3v-4.34c0.73-0.29,1.43-0.6,2.09-0.94    l3.69,7.62L30.35,74.905z M70.65,73.605c0,0.61-0.41,1.14-0.96,1.29l-4.64,1.06l3.56-7.36c0.5,0.24,1.02,0.47,1.56,0.68l0.48,0.19    V73.605z"/>
      <path fill="#1f2937" d="M71.06,47.615c-0.45-3.81-3.53-7-7.32-7.58c-1.38-0.22-2.74-0.11-4.04,0.3c-3.15,1.01-5.5,1.36-9,1.36    h-0.23c-3.85,0-6.99-0.43-9.9-1.36c-0.34-0.11-0.68-0.19-1.02-0.25c-0.98-0.19-2-0.21-3.02-0.05c-3.79,0.58-6.87,3.77-7.32,7.58    c-0.45,3.82,1.59,7.45,5.06,9.03c0.5,0.23,1.1,0.01,1.33-0.49c0.23-0.5,0-1.1-0.5-1.33c-2.68-1.22-4.25-4.02-3.9-6.97    c0.35-2.94,2.71-5.4,5.63-5.85c1.07-0.16,2.13-0.08,3.13,0.24c3.11,0.99,6.45,1.45,10.51,1.45h0.23c3.68,0,6.28-0.39,9.61-1.45    c1-0.32,2.05-0.4,3.13-0.24c2.91,0.45,5.28,2.91,5.63,5.85c0.35,2.95-1.22,5.75-3.9,6.97c-0.51,0.23-0.73,0.83-0.5,1.33    c0.17,0.37,0.53,0.58,0.91,0.58c0.14,0,0.28-0.03,0.42-0.09C69.47,55.065,71.51,51.435,71.06,47.615z"/>
    </g>
  </g>
</svg>
