<?xml version="1.0" encoding="utf-8"?>
<!-- Generator: Adobe Illustrator 19.2.1, SVG Export Plug-In . SVG Version: 6.00 Build 0)  -->
<svg version="1.1" id="layer" xmlns="http://www.w3.org/2000/svg" xmlns:xlink="http://www.w3.org/1999/xlink" x="0px" y="0px"
	 viewBox="0 0 652 652" style="enable-background:new 0 0 652 652;" xml:space="preserve">
<style type="text/css">
	.st0{fill:#1F1F1F;}
	.st1{fill:#3ECF8E;}
	.st2{fill:url(#SVGID_1_);}
	.st3{fill:url(#SVGID_2_);fill-opacity:0.2;}
</style>
<path class="st0" d="M170.5,343.2c0.6,6,6.1,16.2,21.8,16.2c13.7,0,20.3-8.7,20.3-17.2c0-7.7-5.2-13.9-15.5-16.1l-7.4-1.6
	c-2.9-0.5-4.8-2.1-4.8-4.7c0-3,3-5.2,6.7-5.2c6,0,8.2,3.9,8.6,7l11.8-2.7c-0.6-5.6-5.6-15.1-20.5-15.1c-11.3,0-19.6,7.8-19.6,17.1
	c0,7.3,4.6,13.4,14.7,15.6l6.9,1.6c4,0.9,5.6,2.8,5.6,5.1c0,2.8-2.2,5.2-6.9,5.2c-6.2,0-9.2-3.8-9.6-8L170.5,343.2z M257.8,357.8
	h13.5c-0.2-1.8-0.5-5.4-0.5-9.5v-42.9h-14.1v30.4c0,6.1-3.6,10.3-9.9,10.3c-6.6,0-9.6-4.7-9.6-10.5v-30.2H223v33.1
	c0,11.4,7.2,20.6,19.9,20.6c5.5,0,11.6-2.1,14.5-7C257.3,354.3,257.5,356.7,257.8,357.8z M300,378v-25.3c2.6,3.5,7.9,6.4,15.1,6.4
	c14.8,0,24.7-11.7,24.7-27.6c0-15.5-8.8-27.2-24.1-27.2c-7.9,0-13.7,3.5-16.1,7.6v-6.4h-13.7V378H300z M325.8,331.6
	c0,9.4-5.7,14.8-13,14.8c-7.2,0-13.1-5.5-13.1-14.8c0-9.3,5.8-14.7,13.1-14.7C320,316.9,325.8,322.3,325.8,331.6z M347.7,343.5
	c0,8.2,6.8,15.8,18,15.8c7.8,0,12.8-3.6,15.4-7.8c0,2,0.2,4.9,0.5,6.3h13c-0.3-1.8-0.6-5.5-0.6-8.3v-25.8c0-10.5-6.2-19.9-22.7-19.9
	c-14,0-21.6,9-22.4,17.2l12.5,2.7c0.4-4.6,3.8-8.5,10-8.5c6,0,8.8,3.1,8.8,6.8c0,1.8-1,3.3-3.9,3.7l-12.9,1.9
	C354.6,328.9,347.7,334.1,347.7,343.5z M368.7,348.7c-4.6,0-6.8-3-6.8-6.1c0-4,2.9-6.1,6.5-6.6l11.8-1.8v2.3
	C380.1,345.9,374.6,348.7,368.7,348.7z M421.9,357.8v-6.4c2.8,4.5,8.3,7.7,15.5,7.7c14.9,0,24.7-11.8,24.7-27.7
	c0-15.5-8.8-27.4-24.1-27.4c-7.8,0-13.5,3.4-15.8,7.1v-30.4h-13.9v77H421.9z M448,331.5c0,9.6-5.7,14.9-13,14.9
	c-7.1,0-13.1-5.4-13.1-14.9c0-9.6,6-14.8,13.1-14.8C442.2,316.7,448,321.9,448,331.5z M470.1,343.5c0,8.2,6.8,15.8,18,15.8
	c7.8,0,12.8-3.6,15.4-7.8c0,2,0.2,4.9,0.5,6.3h13c-0.3-1.8-0.6-5.5-0.6-8.3v-25.8c0-10.5-6.2-19.9-22.7-19.9c-14,0-21.6,9-22.4,17.2
	l12.5,2.7c0.4-4.6,3.8-8.5,10-8.5c6,0,8.8,3.1,8.8,6.8c0,1.8-1,3.3-3.9,3.7l-12.9,1.9C477,328.9,470.1,334.1,470.1,343.5z
	 M491,348.7c-4.6,0-6.8-3-6.8-6.1c0-4,2.9-6.1,6.5-6.6l11.8-1.8v2.3C502.5,345.9,497,348.7,491,348.7z M526.1,343.2
	c0.6,6,6.1,16.2,21.8,16.2c13.7,0,20.3-8.7,20.3-17.2c0-7.7-5.2-13.9-15.5-16.1l-7.4-1.6c-2.9-0.5-4.8-2.1-4.8-4.7
	c0-3,3-5.2,6.7-5.2c6,0,8.2,3.9,8.6,7l11.8-2.7c-0.6-5.6-5.6-15.1-20.5-15.1c-11.3,0-19.6,7.8-19.6,17.1c0,7.3,4.6,13.4,14.7,15.6
	l6.9,1.6c4,0.9,5.6,2.8,5.6,5.1c0,2.8-2.2,5.2-6.9,5.2c-6.2,0-9.2-3.8-9.6-8L526.1,343.2z M589.7,325.6c0.3-4.8,4.4-10.3,11.7-10.3
	c8.1,0,11.5,5.1,11.7,10.3H589.7z M614.5,339.3c-1.7,4.7-5.3,8-11.9,8c-7,0-12.9-5-13.2-11.9h37.4c0-0.2,0.2-2.3,0.2-4.4
	c0-16.8-9.7-27.1-25.8-27.1c-13.4,0-25.7,10.9-25.7,27.6c0,17.7,12.6,28,27,28c12.9,0,21.2-7.6,23.8-16.6L614.5,339.3z"/>
<path class="st1" d="M32.6,340.3c-3.1,0-5.6-2.5-5.6-5.6c0-1.2,0.4-2.4,1.1-3.3l2.1-3l48.5-65.5c0.4-0.5,1-0.9,1.7-0.9
	c1.2,0,2.1,0.9,2.1,2.1v0.2v75.9H32.6z"/>
<linearGradient id="SVGID_1_" gradientUnits="userSpaceOnUse" x1="78.2882" y1="312.8578" x2="119.7054" y2="296.6962" gradientTransform="matrix(1 0 0 -1 0 652)">
	<stop  offset="0" style="stop-color:#249361"/>
	<stop  offset="1" style="stop-color:#3ECF8E"/>
</linearGradient>
<path class="st2" d="M132.6,312c3.1,0,5.6,2.5,5.6,5.6c0,1.2-0.4,2.4-1.1,3.3l-2.1,3l-48.5,65.5c-0.4,0.5-1,0.9-1.7,0.9
	c-1.2,0-2.1-0.9-2.1-2.1v-0.2V312H132.6z"/>
<linearGradient id="SVGID_2_" gradientUnits="userSpaceOnUse" x1="77.277" y1="357.5552" x2="97.952" y2="321.344" gradientTransform="matrix(1 0 0 -1 0 652)">
	<stop  offset="0" style="stop-color:#000000"/>
	<stop  offset="1" style="stop-color:#000000;stop-opacity:0"/>
</linearGradient>
<path class="st3" d="M132.6,312c3.1,0,5.6,2.5,5.6,5.6c0,1.2-0.4,2.4-1.1,3.3l-2.1,3l-48.5,65.5c-0.4,0.5-1,0.9-1.7,0.9
	c-1.2,0-2.1-0.9-2.1-2.1v-0.2V312H132.6z"/>
</svg>
